<?xml version="1.0" ?><svg width="31.726px" height="31.726px" viewBox="0 -0.95 31.726 31.726" xmlns="http://www.w3.org/2000/svg"><g transform="translate(-418.388 -194.16)"><path d="M434.032,213.971a21.533,21.533,0,0,1,13.327,4.569,1.862,1.862,0,0,1,.755,1.463v1.975H420.388v-2.3a1.862,1.862,0,0,1,.773-1.478,21.492,21.492,0,0,1,12.871-4.232m0-2a23.546,23.546,0,0,0-14.06,4.624,3.848,3.848,0,0,0-1.584,3.086v2.674a1.623,1.623,0,0,0,1.623,1.623h28.48a1.623,1.623,0,0,0,1.623-1.623V220a3.867,3.867,0,0,0-1.528-3.043,23.647,23.647,0,0,0-14.554-4.989Z"/><path d="M434.042,196.16a7.856,7.856,0,1,1-7.856,7.856,7.865,7.865,0,0,1,7.856-7.856m0-2a9.856,9.856,0,1,0,9.856,9.856,9.856,9.856,0,0,0-9.856-9.856Z"/></g></svg>