<svg version="1.1" id="Layer_1" xmlns="http://www.w3.org/2000/svg" xmlns:xlink="http://www.w3.org/1999/xlink" x="0px" y="0px"
	 width="100%" viewBox="0 0 170 170" enable-background="new 0 0 170 170" xml:space="preserve">
<path fill="#010101" opacity="1.000000" stroke="none" 
	d="
M115.000000,171.000000 
	C76.666672,171.000000 38.833344,171.000000 1.000010,171.000000 
	C1.000007,114.333344 1.000007,57.666691 1.000003,1.000025 
	C57.666645,1.000017 114.333290,1.000017 170.999954,1.000008 
	C170.999969,57.666641 170.999969,114.333282 170.999985,170.999969 
	C152.500000,171.000000 134.000000,171.000000 115.000000,171.000000 
M126.878868,124.319695 
	C123.466934,118.186432 120.055000,112.053169 117.619942,105.807854 
	C125.185555,105.807854 132.751160,105.807854 141.364685,105.807854 
	C126.809563,80.613243 112.835602,56.424603 98.575638,31.740906 
	C95.536415,36.948372 92.922882,41.730099 89.993675,46.309917 
	C88.645699,48.417480 86.679260,50.129478 84.765663,51.360420 
	C81.331230,45.545155 77.896790,39.729889 74.278458,33.316181 
	C73.686134,33.511608 73.093811,33.707039 72.020912,34.324795 
	C58.430893,57.798904 44.840870,81.273018 30.580256,105.905441 
	C39.634476,105.905441 47.519493,105.905441 55.209003,106.623032 
	C51.825554,112.754692 48.442101,118.886353 44.455547,125.461075 
	C45.281040,126.128929 46.104237,127.377136 46.932358,127.380417 
	C72.893204,127.483208 98.854530,127.465729 124.815781,127.460320 
	C125.643539,127.460152 126.471283,127.393631 127.299034,127.358032 
	C127.180115,126.578705 127.061203,125.799385 126.878868,124.319695 
z"/>
<path fill="#F6F6F6" opacity="1.000000" stroke="none" 
	d="
M84.993256,52.020844 
	C86.679260,50.129478 88.645699,48.417480 89.993675,46.309917 
	C92.922882,41.730099 95.536415,36.948372 98.575638,31.740906 
	C112.835602,56.424603 126.809563,80.613243 141.364685,105.807854 
	C132.751160,105.807854 125.185555,105.807854 116.944603,105.903732 
	C116.269264,105.999619 115.889717,105.954697 115.779205,105.626358 
	C106.132095,88.616829 96.605003,71.930138 87.015518,55.279392 
	C86.709808,54.748585 85.763252,54.586857 85.075035,53.882339 
	C85.020836,53.014687 85.007042,52.517765 84.993256,52.020844 
z"/>
<path fill="#FFFFFF" opacity="1.000000" stroke="none" 
	d="
M84.879456,51.690632 
	C85.007042,52.517765 85.020836,53.014687 85.027756,54.222340 
	C82.212372,59.818443 79.373535,64.686684 76.601334,69.592567 
	C69.758163,81.702774 62.945553,93.830246 55.941147,105.946877 
	C55.761642,105.942978 55.404510,105.905441 55.404510,105.905441 
	C47.519493,105.905441 39.634476,105.905441 30.580256,105.905441 
	C44.840870,81.273018 58.430893,57.798904 72.751640,34.136658 
	C73.809029,33.937225 74.135689,33.925926 74.462349,33.914619 
	C77.896790,39.729889 81.331230,45.545155 84.879456,51.690632 
z"/>
<path fill="#FFFFFF" opacity="1.000000" stroke="none" 
	d="
M55.306755,106.264236 
	C55.404510,105.905441 55.761642,105.942978 56.388840,105.838593 
	C76.640594,105.807701 96.265160,105.881195 115.889717,105.954697 
	C115.889717,105.954697 116.269264,105.999619 116.456161,105.959763 
	C120.055000,112.053169 123.466934,118.186432 126.530701,124.834625 
	C125.053719,125.564644 123.925171,125.965797 122.796043,125.967461 
	C98.322327,126.003494 73.848503,126.011490 49.374870,125.953293 
	C47.935394,125.949875 46.497356,125.343689 45.058647,125.018013 
	C48.442101,118.886353 51.825554,112.754692 55.306755,106.264236 
z"/>
<path fill="#F6F6F6" opacity="1.000000" stroke="none" 
	d="
M44.757095,125.239548 
	C46.497356,125.343689 47.935394,125.949875 49.374870,125.953293 
	C73.848503,126.011490 98.322327,126.003494 122.796043,125.967461 
	C123.925171,125.965797 125.053719,125.564644 126.562408,125.184799 
	C127.061203,125.799385 127.180115,126.578705 127.299034,127.358032 
	C126.471283,127.393631 125.643539,127.460152 124.815781,127.460320 
	C98.854530,127.465729 72.893204,127.483208 46.932358,127.380417 
	C46.104237,127.377136 45.281040,126.128929 44.757095,125.239548 
z"/>
<path fill="#F6F6F6" opacity="1.000000" stroke="none" 
	d="
M74.370407,33.615402 
	C74.135689,33.925926 73.809029,33.937225 72.991928,33.925495 
	C73.093811,33.707039 73.686134,33.511608 74.370407,33.615402 
z"/>
<path fill="#0E0E0E" opacity="1.000000" stroke="none" 
	d="
M115.779205,105.626358 
	C96.265160,105.881195 76.640594,105.807701 56.568344,105.842491 
	C62.945553,93.830246 69.758163,81.702774 76.601334,69.592567 
	C79.373535,64.686684 82.212372,59.818443 85.068161,54.593071 
	C85.763252,54.586857 86.709808,54.748585 87.015518,55.279392 
	C96.605003,71.930138 106.132095,88.616829 115.779205,105.626358 
M83.954788,100.996101 
	C91.358971,101.223213 96.469032,98.032112 98.298416,92.038872 
	C99.945587,86.642578 97.804924,80.647552 93.024811,77.670845 
	C88.545746,74.881615 83.854004,74.751366 79.345284,77.453514 
	C74.813255,80.169632 72.681175,84.425041 73.261787,89.665993 
	C73.916840,95.578865 77.444588,99.242065 83.954788,100.996101 
z"/>
<path fill="#F8F8F8" opacity="1.000000" stroke="none" 
	d="
M83.552788,100.912987 
	C77.444588,99.242065 73.916840,95.578865 73.261787,89.665993 
	C72.681175,84.425041 74.813255,80.169632 79.345284,77.453514 
	C83.854004,74.751366 88.545746,74.881615 93.024811,77.670845 
	C97.804924,80.647552 99.945587,86.642578 98.298416,92.038872 
	C96.469032,98.032112 91.358971,101.223213 83.552788,100.912987 
z"/>
</svg>