<?xml version="1.0" encoding="iso-8859-1"?>
<!-- Generator: Adobe Illustrator 19.0.0, SVG Export Plug-In . SVG Version: 6.00 Build 0)  -->
<svg version="1.1" id="Layer_1" xmlns="http://www.w3.org/2000/svg" xmlns:xlink="http://www.w3.org/1999/xlink" x="0px" y="0px"
	 viewBox="0 0 512.004 512.004" style="enable-background:new 0 0 512.004 512.004;" xml:space="preserve">
<g>
	<g>
		<g>
			<path d="M209.74,267.847c0.203-0.304,0.379-0.619,0.565-0.931c0.171-0.286,0.35-0.565,0.507-0.859
				c0.17-0.318,0.314-0.645,0.467-0.97c0.145-0.306,0.298-0.608,0.428-0.922c0.13-0.315,0.236-0.637,0.35-0.957
				c0.121-0.337,0.25-0.669,0.354-1.013c0.097-0.32,0.168-0.645,0.249-0.969c0.089-0.351,0.187-0.698,0.258-1.056
				c0.074-0.375,0.118-0.753,0.172-1.13c0.044-0.311,0.104-0.618,0.135-0.933c0.138-1.4,0.138-2.811,0-4.211
				c-0.031-0.315-0.09-0.622-0.135-0.933c-0.054-0.377-0.098-0.755-0.172-1.13c-0.071-0.358-0.169-0.705-0.258-1.056
				c-0.081-0.323-0.152-0.649-0.249-0.969c-0.104-0.344-0.233-0.677-0.354-1.013c-0.115-0.32-0.22-0.642-0.35-0.957
				c-0.13-0.314-0.283-0.616-0.428-0.922c-0.153-0.325-0.297-0.652-0.467-0.97c-0.157-0.294-0.337-0.573-0.507-0.859
				c-0.186-0.312-0.362-0.627-0.565-0.931c-0.211-0.316-0.447-0.613-0.674-0.917c-0.19-0.253-0.365-0.513-0.568-0.759
				c-0.446-0.544-0.916-1.067-1.413-1.563l-64-64c-8.331-8.331-21.839-8.331-30.17,0s-8.331,21.839,0,30.17l27.582,27.582h-33.83
				c-35.343,0-64-28.657-64-64s28.657-64,64-64H384c11.782,0,21.333-9.551,21.333-21.333c0-11.782-9.551-21.333-21.333-21.333
				H106.667C47.759,64.002,0,111.761,0,170.669s47.759,106.667,106.667,106.667h33.83l-27.582,27.582
				c-8.331,8.331-8.331,21.839,0,30.17s21.839,8.331,30.17,0l64-64c0.497-0.497,0.967-1.02,1.413-1.563
				c0.202-0.246,0.378-0.506,0.568-0.759C209.293,268.461,209.529,268.163,209.74,267.847z"/>
			<path d="M182.852,405.335h-42.667c-11.797,0-21.333,9.536-21.333,21.333s9.536,21.333,21.333,21.333h42.667
				c11.797,0,21.333-9.536,21.333-21.333S194.65,405.335,182.852,405.335z"/>
			<path d="M310.852,405.335h-42.667c-11.797,0-21.333,9.536-21.333,21.333s9.536,21.333,21.333,21.333h42.667
				c11.797,0,21.333-9.536,21.333-21.333S322.65,405.335,310.852,405.335z"/>
			<path d="M429.828,400.471c-7.765,3.243-16.021,4.864-24.491,4.864h-9.152c-11.797,0-21.333,9.536-21.333,21.333
				s9.536,21.333,21.333,21.333h9.152c14.101,0,27.84-2.731,40.832-8.107c10.88-4.501,16.043-16.981,11.541-27.883
				C453.21,401.133,440.644,395.991,429.828,400.471z"/>
			<path d="M506.586,307.693c-3.733-11.2-15.808-17.216-26.965-13.547c-11.179,3.712-17.237,15.787-13.547,26.965
				c2.176,6.485,3.264,13.312,3.264,20.224c0,3.904-0.363,7.701-1.003,11.435c-2.069,11.605,5.675,22.699,17.259,24.725
				c1.28,0.235,2.539,0.341,3.755,0.341c10.155,0,19.157-7.275,20.992-17.6c1.088-6.229,1.664-12.587,1.664-18.901
				C512.004,329.837,510.17,318.53,506.586,307.693z"/>
			<path d="M320,341.335c39.765,0,73.173-27.193,82.645-64h2.692c5.355,0,10.688,0.661,15.872,1.984
				c1.749,0.427,3.52,0.64,5.248,0.64c9.515,0,18.219-6.443,20.672-16.107c2.88-11.413-4.053-23.019-15.467-25.92
				c-8.576-2.155-17.451-3.264-26.325-3.264h-2.692c-9.472-36.807-42.88-64-82.645-64c-47.131,0-85.333,38.202-85.333,85.333
				S272.869,341.335,320,341.335z M320,213.335c23.567,0,42.667,19.099,42.667,42.667S343.567,298.669,320,298.669
				s-42.667-19.099-42.667-42.667S296.433,213.335,320,213.335z"/>
		</g>
	</g>
</g>
<g>
</g>
<g>
</g>
<g>
</g>
<g>
</g>
<g>
</g>
<g>
</g>
<g>
</g>
<g>
</g>
<g>
</g>
<g>
</g>
<g>
</g>
<g>
</g>
<g>
</g>
<g>
</g>
<g>
</g>
</svg>
