<?xml version="1.0" encoding="iso-8859-1"?>
<!-- Generator: Adobe Illustrator 19.0.0, SVG Export Plug-In . SVG Version: 6.00 Build 0)  -->
<svg version="1.1" id="Layer_1" xmlns="http://www.w3.org/2000/svg" xmlns:xlink="http://www.w3.org/1999/xlink" x="0px" y="0px"
	 viewBox="0 0 512.007 512.007" style="enable-background:new 0 0 512.007 512.007;" xml:space="preserve">
<g>
	<g>
		<g>
			<path d="M234.671,234.645c2.731,0,5.461-1.045,7.509-3.115l85.333-85.333c4.16-4.16,4.16-10.923,0-15.083
				c-4.16-4.16-10.923-4.16-15.083,0l-77.781,77.781l-35.115-35.115c-4.16-4.16-10.923-4.16-15.083,0
				c-4.16,4.16-4.16,10.923,0,15.083l42.667,42.667C229.21,233.6,231.941,234.645,234.671,234.645z"/>
			<path d="M373.637,319.061c38.912-33.28,63.701-82.624,63.701-137.728C437.338,81.344,355.994,0,256.005,0
				S74.671,81.344,74.671,181.333c0,55.104,24.768,104.427,63.68,137.728L75.269,497.792c-1.429,4.075-0.256,8.661,3.008,11.541
				c2.005,1.728,4.523,2.645,7.061,2.645c1.621,0,3.264-0.384,4.779-1.131l79.232-39.616l48,38.421
				c2.901,2.304,6.741,2.923,10.219,1.728c3.477-1.216,6.059-4.139,6.869-7.744l14.741-66.304l28.992,68.16
				c1.301,3.072,3.968,5.355,7.211,6.165c3.221,0.875,6.677,0.064,9.28-2.005l48-38.421l79.232,39.616
				c1.515,0.747,3.157,1.131,4.779,1.131c2.539,0,5.056-0.917,7.04-2.667c3.264-2.88,4.459-7.467,3.008-11.541L373.637,319.061z
				 M96.005,181.312c0-88.235,71.765-160,160-160s160,71.765,160,160s-71.765,160-160,160S96.005,269.547,96.005,181.312z
				 M217.306,482.304l-39.979-31.979c-3.264-2.603-7.723-3.051-11.435-1.216l-61.717,30.848l52.032-147.413
				c17.771,11.776,37.76,20.416,59.157,25.344l19.435,45.675L217.306,482.304z M346.095,449.109
				c-3.712-1.835-8.171-1.387-11.435,1.216l-42.347,33.899l-52.096-122.389c5.205,0.448,10.453,0.789,15.787,0.789
				c36.864,0,71.147-11.115,99.797-30.08l52.011,147.392L346.095,449.109z"/>
			<path d="M256.005,298.645c64.704,0,117.333-52.651,117.333-117.333S320.709,63.979,256.005,63.979
				s-117.333,52.651-117.333,117.333S191.301,298.645,256.005,298.645z M256.005,85.312c52.928,0,96,43.072,96,96
				c0,52.928-43.072,96-96,96s-96-43.072-96-96S203.077,85.312,256.005,85.312z"/>
		</g>
	</g>
</g>
<g>
</g>
<g>
</g>
<g>
</g>
<g>
</g>
<g>
</g>
<g>
</g>
<g>
</g>
<g>
</g>
<g>
</g>
<g>
</g>
<g>
</g>
<g>
</g>
<g>
</g>
<g>
</g>
<g>
</g>
</svg>
